<?xml version="1.0" encoding="utf-8"?>
<!-- Generator: Adobe Illustrator 24.2.0, SVG Export Plug-In . SVG Version: 6.00 Build 0)  -->
<svg version="1.1" id="Layer_1" xmlns="http://www.w3.org/2000/svg" xmlns:xlink="http://www.w3.org/1999/xlink" x="0px" y="0px"
	 viewBox="0 0 61 61" style="enable-background:new 0 0 61 61;" xml:space="preserve">
<style type="text/css">
	.st0{fill-rule:evenodd;clip-rule:evenodd;fill:#FFFFFF;}
	.st1{fill:#A50064;}
	.st2{fill:none;}
	.st3{fill:#FFFFFF;}
</style>
<circle class="st0" cx="-544" cy="30.5" r="168"/>
<g id="_x35_.-Kiểm-tra-giao-dịch">
	<g id="momo_icon_square_pinkbg">
		<path id="Path" class="st2" d="M56.4,0.5H4.6c-1.5,0-2.8,0-4.1,0v55.9c0,1.5,0,2.8,0,4.1h60c0-1.2,0-2.6,0-4.1V0.5
			C59.3,0.5,57.9,0.5,56.4,0.5z"/>
		<g id="Group" transform="translate(4.000000, 5.500000)">
			<path id="Shape" class="st3" d="M41.4,22.6c6.1,0,11.1-4.9,11.1-11s-5-11-11.1-11s-11.1,4.9-11.1,11S35.3,22.6,41.4,22.6z
				 M41.4,6.8c2.6,0,4.7,2.1,4.7,4.7s-2.1,4.7-4.7,4.7c-2.6,0-4.7-2.1-4.7-4.7S38.8,6.8,41.4,6.8z"/>
			<path id="Shape_1_" class="st3" d="M41.4,27.4c-6.1,0-11.1,4.9-11.1,11s5,11,11.1,11s11.1-4.9,11.1-11S47.5,27.4,41.4,27.4z
				 M41.4,43.1c-2.6,0-4.7-2.1-4.7-4.7c0-2.6,2.1-4.7,4.7-4.7c2.6,0,4.7,2.1,4.7,4.7C46.1,41,44,43.1,41.4,43.1z"/>
			<path id="Path_1_" class="st3" d="M18.8,27.4c-1.9,0-3.6,0.6-5,1.7c-1.4-1-3.1-1.7-5-1.7c-4.6,0-8.3,3.7-8.3,8.3v13.8h6.4V35.6
				c0-1,0.8-1.9,1.9-1.9s1.9,0.8,1.9,1.9v13.9H17V35.6c0-1,0.8-1.9,1.9-1.9c1,0,1.9,0.8,1.9,1.9v13.9h6.3V35.6
				C27.1,31.1,23.4,27.4,18.8,27.4z"/>
			<path id="Path_2_" class="st3" d="M18.8,0.5c-1.9,0-3.6,0.6-5,1.7c-1.4-1-3.1-1.7-5-1.7c-4.6,0-8.3,3.7-8.3,8.3v13.8h6.4V8.7
				c0-1,0.8-1.9,1.9-1.9s1.9,0.8,1.9,1.9v13.9H17V8.7c0-1,0.8-1.9,1.9-1.9c1,0,1.9,0.8,1.9,1.9v13.9h6.4V8.8
				C27.1,4.2,23.4,0.5,18.8,0.5z"/>
		</g>
	</g>
</g>
</svg>
