<svg height="512" viewBox="0 0 64 64" width="512" xmlns="http://www.w3.org/2000/svg"><g id="Icons"><g><g><path d="m38 56h-12l.67-4 .66-4h9.34l.66 4z" fill="#074f77"/></g><g><path d="m37.33 52h-10.66l.66-4h9.34z" fill="#00325a"/></g><g><path d="m37 50h-10l.33-2h9.34z" fill="#00325a"/></g><g><path d="m60 18v30c0 1.1-.9 2-2 2h-52c-1.1 0-2-.9-2-2v-30c0-1.1.9-2 2-2h52c1.1 0 2 .9 2 2z" fill="#01a0c8"/></g><g><path d="m48.5 16h1v2h-1z" fill="#0082aa"/></g><path d="m23 16h20v2h-20z" fill="#0082aa"/><path d="m58 19v24c0 .55-.45 1-1 1h-50c-.55 0-1-.45-1-1v-24c0-.55.45-1 1-1h50c.55 0 1 .45 1 1z" fill="#f0f0f0"/><path d="m52 43v1h-40v-1c0-4.42 3.58-8 8-8h24c4.41 0 8 3.58 8 8z" fill="#d2d2d2"/><g fill="#d2d2d2"><path d="m50 25v3c0 .55-.45 1-1 1h-2c-.55 0-1-.45-1-1v-3c0-.93.64-1.71 1.5-1.93v-5.07h1v5.07c.86.22 1.5 1 1.5 1.93z"/><path d="m46 22c0 1.66-1.34 3-3 3h-1c0 5.52-4.48 10-10 10s-10-4.48-10-10h-1c-1.66 0-3-1.34-3-3s1.34-3 3-3h1v-1h20v1h1c1.66 0 3 1.34 3 3z"/></g><g><path d="m55 32h-1v-1c0-.552-.448-1-1-1-.552 0-1 .448-1 1v1h-1c-.552 0-1 .448-1 1 0 .552.448 1 1 1h1v1c0 .552.448 1 1 1 .552 0 1-.448 1-1v-1h1c.552 0 1-.448 1-1 0-.552-.448-1-1-1z" fill="#c8094f"/></g><g><path d="m13 32h-1v-1c0-.552-.448-1-1-1-.552 0-1 .448-1 1v1h-1c-.552 0-1 .448-1 1 0 .552.448 1 1 1h1v1c0 .552.448 1 1 1 .552 0 1-.448 1-1v-1h1c.552 0 1-.448 1-1 0-.552-.448-1-1-1z" fill="#c8094f"/></g><path d="m52 44h-40c0-4.42 3.58-8 8-8h24c4.42 0 8 3.58 8 8z" fill="#0a5078"/><g><g><g><path d="m47.5 10h1v16h-1z" fill="#00325a"/></g><g><path d="m22 10h20v10h-20z" fill="#01133b"/><path d="m31.729 4.038-17.592 4.961c-.971.274-.971 1.651 0 1.925l17.592 4.961c.177.05.365.05.543 0l17.592-4.961c.971-.274.971-1.651 0-1.925l-17.593-4.961c-.177-.051-.365-.051-.542 0z" fill="#0a5078"/></g><path d="m32 36c-5.523 0-10-4.477-10-10v-6h20v6c0 5.523-4.477 10-10 10z" fill="#f0c8a0"/><path d="m22 26h-1c-1.657 0-3-1.343-3-3 0-1.657 1.343-3 3-3h1z" fill="#d2aa82"/><path d="m42 20h1c1.657 0 3 1.343 3 3 0 1.657-1.343 3-3 3h-1z" fill="#d2aa82"/><circle cx="27" cy="23" fill="#00143c" r="1"/><circle cx="37" cy="23" fill="#00143c" r="1"/><path d="m49 30h-2c-.552 0-1-.448-1-1v-3c0-1.105.895-2 2-2 1.105 0 2 .895 2 2v3c0 .552-.448 1-1 1z" fill="#fab400"/></g><path d="m31.839 30c-1.76 0-3.254-1.137-3.789-2.715-.215-.633.294-1.285.962-1.285h5.654c.668 0 1.177.652.962 1.285-.535 1.579-2.029 2.715-3.789 2.715z" fill="#c8094f"/></g><g><path d="m43 60h-22c-.552 0-1-.448-1-1v-1c0-1.105.895-2 2-2h20c1.105 0 2 .895 2 2v1c0 .552-.448 1-1 1z" fill="#01a0c8"/></g><g><path d="m53 48h4c.552 0 1-.448 1-1 0-.552-.448-1-1-1h-4c-.552 0-1 .448-1 1 0 .552.448 1 1 1z" fill="#f0f0f0"/></g><g><circle cx="49" cy="47" fill="#f0f0f0" r="1"/></g></g></g></svg>