<svg id="Icon_Set" enable-background="new 0 0 256 256" height="512" viewBox="0 0 256 256" width="512" xmlns="http://www.w3.org/2000/svg"><g><g><g><g><g><g><circle cx="214.865" cy="44.642" fill="#f9d335" r="13.824"/></g></g></g></g><g><g><g><g><path d="m237.61 247.05h-222.167c-5.523 0-10-4.477-10-10v-78.779c0-7.818 8.569-12.613 15.232-8.522l3.952 2.426c40.6 24.923 87.753 37.068 135.341 34.861l87.641-3.832v53.846c.001 5.523-4.476 10-9.999 10z" fill="#44c7b6"/></g></g></g></g><g><g><g><g><path d="m113.86 70.302-77.27-25.562v51.125z" fill="#ff4a73"/></g></g></g></g><g><g><g><g><path d="m30.447 247.049h-15c-5.53 0-10-4.48-10-10v-78.78c0-7.82 8.57-12.61 15.23-8.52l2.57 1.58c-1.71 1.74-2.8 4.15-2.8 6.94v78.78c0 5.52 4.47 10 10 10z" fill="#4bdbc3"/></g></g></g></g><g><g><g><g><path d="m48.867 48.797v43.012l-12.276 4.059v-51.13z" fill="#f973a3"/></g></g></g></g><g><g><g><g><circle cx="72.777" cy="210.667" fill="#ffe2e2" r="14.978"/></g></g></g></g></g><g><g><g><g><g><g><path d="m133.553 129.138h15.135l-11.038-28.159-11.038-28.159-11.037 28.159-11.038 28.159h15.135l-4.097 10.453-11.038 28.16h22.075 22.076l-11.038-28.16z" fill="#44c7b6"/></g></g></g></g></g><g><g><g><g><g><path d="m148.686 167.75h-15l-11.04-28.16-3.53-9.02.56-1.43h13.88l4.09 10.45z" fill="#3bb2a0"/></g></g></g></g><g><g><g><g><path d="m122.646 100.98-3.53-9.02 7.5-19.14 11.03 28.16 11.04 28.16h-15z" fill="#3bb2a0"/></g></g></g></g></g><g><g><g><g><g><path d="m130.576 100.98 3.54-9.02-7.5-19.14-11.04 28.16-11.04 28.16h15z" fill="#4bdbc3"/></g></g></g></g><g><g><g><g><path d="m119.676 129.14-4.1 10.45-11.04 28.16h15l11.04-28.16 3.54-9.02-.56-1.43z" fill="#4bdbc3"/></g></g></g></g></g></g><g><g><g><g><g><g><path d="m191.901 133.298h13.538l-9.873-25.187-9.872-25.186-9.873 25.186-9.872 25.187h13.537l-3.665 9.35-9.872 25.186h19.745 19.745l-9.873-25.186z" fill="#44c7b6"/></g></g></g></g></g><g><g><g><g><g><path d="m205.437 167.833h-13.417l-9.874-25.187-3.157-8.068.5-1.279h12.415l3.658 9.347z" fill="#3bb2a0"/></g></g></g></g><g><g><g><g><path d="m182.146 108.112-3.157-8.067 6.708-17.12 9.865 25.187 9.875 25.187h-13.417z" fill="#3bb2a0"/></g></g></g></g></g><g><g><g><g><g><path d="m189.239 108.112 3.166-8.067-6.708-17.12-9.875 25.187-9.874 25.187h13.416z" fill="#4bdbc3"/></g></g></g></g><g><g><g><g><path d="m179.489 133.299-3.667 9.347-9.874 25.187h13.416l9.875-25.187 3.166-8.068-.501-1.279z" fill="#4bdbc3"/></g></g></g></g></g></g><g fill="#5f266d"><path d="m247.435 179.207-57.741 2.524v-9.898h15.743c2.818 0 4.75-2.841 3.724-5.46l-11.394-29.075h7.672c2.812 0 4.752-2.835 3.724-5.46l-19.745-50.373c-1.323-3.376-6.123-3.381-7.448 0l-19.745 50.373c-1.03 2.629.917 5.46 3.724 5.46h7.676l-11.401 29.075c-1.028 2.624.911 5.46 3.724 5.46h15.746v10.248c-24.371 1.065-34.085 1.824-51.082.503v-10.834h18.073c2.818 0 4.75-2.841 3.724-5.46l-12.991-33.151h9.268c2.812 0 4.752-2.835 3.724-5.46l-22.073-56.319c-1.323-3.376-6.123-3.381-7.448 0l-22.076 56.318c-1.03 2.629.917 5.46 3.724 5.46h9.274l-12.999 33.151c-1.028 2.624.911 5.46 3.724 5.46h18.077v10.072c-28.618-3.22-56.353-11.719-82.022-25.183v-57.883l74.526-24.655c1.638-.542 2.744-2.073 2.744-3.798s-1.106-3.256-2.744-3.798l-74.526-24.655v-7.693c0-2.209-1.791-4-4-4s-4 1.791-4 4v118.086c-1.969-1.132-3.929-2.285-5.87-3.477l-3.953-2.427c-4.381-2.688-9.674-2.797-14.161-.285-4.485 2.51-7.164 7.077-7.164 12.217v78.779c0 7.72 6.28 14 14 14h222.167c7.72 0 14-6.28 14-14v-53.847c0-2.322-1.979-4.124-4.175-3.995zm-206.844-128.932 60.534 20.027-60.534 20.027zm131.222 79.023 13.881-35.412 13.88 35.412zm0 34.535 10.406-26.535h6.956l10.398 26.535zm-61.412-38.694 16.211-41.357 16.211 41.357zm0 38.611 12.003-30.611h8.423l11.995 30.611zm133.209 73.3c0 3.309-2.691 6-6 6h-222.167c-3.309 0-6-2.691-6-6v-78.779c0-2.203 1.147-4.16 3.07-5.236.925-.518 1.93-.775 2.934-.775 1.082 0 2.161.3 3.135.897l3.953 2.428c3.312 2.033 6.668 3.973 10.056 5.837v26.521h-3.57c-2.209 0-4 1.791-4 4s1.791 4 4 4h15.14c2.209 0 4-1.791 4-4s-1.791-4-4-4h-3.57v-22.311c36.961 18.583 77.895 27.341 119.553 25.399l83.467-3.649v49.668z"/><path d="m189.052 208.456h20c2.209 0 4-1.791 4-4s-1.791-4-4-4h-20c-2.209 0-4 1.791-4 4s1.792 4 4 4z"/><path d="m224.052 208.456h3.3c2.209 0 4-1.791 4-4s-1.791-4-4-4h-3.3c-2.209 0-4 1.791-4 4s1.792 4 4 4z"/><path d="m214.865 62.466c9.828 0 17.824-7.996 17.824-17.824s-7.996-17.824-17.824-17.824-17.824 7.996-17.824 17.824 7.996 17.824 17.824 17.824zm0-27.649c5.417 0 9.824 4.407 9.824 9.824s-4.407 9.824-9.824 9.824-9.824-4.407-9.824-9.824 4.407-9.824 9.824-9.824z"/><path d="m214.865 23.416c2.209 0 4-1.791 4-4v-10.466c0-2.209-1.791-4-4-4s-4 1.791-4 4v10.466c0 2.209 1.791 4 4 4z"/><path d="m210.865 69.867v10.466c0 2.209 1.791 4 4 4s4-1.791 4-4v-10.466c0-2.209-1.791-4-4-4s-4 1.791-4 4z"/><path d="m250.557 40.642h-10.466c-2.209 0-4 1.791-4 4s1.791 4 4 4h10.466c2.209 0 4-1.791 4-4s-1.791-4-4-4z"/><path d="m179.174 48.642h10.466c2.209 0 4-1.791 4-4s-1.791-4-4-4h-10.466c-2.209 0-4 1.791-4 4s1.791 4 4 4z"/><path d="m235.531 29.633 7.401-7.4c1.563-1.562 1.563-4.095 0-5.656-1.562-1.562-4.094-1.563-5.657 0l-7.401 7.4c-1.563 1.562-1.563 4.095 0 5.656 1.562 1.562 4.095 1.563 5.657 0z"/><path d="m194.199 59.65-7.4 7.401c-3.738 3.739 1.931 9.385 5.657 5.656l7.4-7.401c1.562-1.563 1.562-4.095 0-5.657-1.561-1.56-4.095-1.561-5.657.001z"/><path d="m229.874 59.65c-1.563 1.562-1.563 4.095 0 5.656l7.401 7.401c.781.781 1.805 1.172 2.829 1.172 1.023 0 2.047-.391 2.828-1.172 1.563-1.562 1.563-4.095 0-5.656l-7.401-7.401c-1.562-1.561-4.094-1.562-5.657 0z"/><path d="m197.028 30.805c3.531 0 5.356-4.302 2.829-6.828l-7.4-7.4c-1.563-1.563-4.095-1.563-5.657 0-1.562 1.562-1.562 4.095 0 5.656 7.909 7.909 8.07 8.572 10.228 8.572z"/><path d="m72.777 191.688c-10.464 0-18.978 8.514-18.978 18.979 0 10.464 8.514 18.978 18.978 18.978s18.978-8.514 18.978-18.978c0-10.465-8.514-18.979-18.978-18.979zm0 29.957c-6.053 0-10.978-4.925-10.978-10.978 0-6.054 4.925-10.979 10.978-10.979s10.978 4.925 10.978 10.979c0 6.053-4.925 10.978-10.978 10.978z"/></g></g></svg>