<svg id="Capa_1" enable-background="new 0 0 496.999 496.999" height="512" viewBox="0 0 496.999 496.999" width="512" xmlns="http://www.w3.org/2000/svg"><g><path d="m191.672 447.303c0 18.154 57.259 26.809 127.892 26.809s127.892-8.655 127.892-26.809v-19.877h-255.784z" fill="#8b8089"/><path d="m191.672 427.426h233.721v25.07c0 5.057-2.797 9.528-7.91 13.428 18.701-4.388 29.972-10.57 29.972-18.622v-19.877h-255.783z" fill="#7b7179"/><ellipse cx="319.564" cy="396.223" fill="#8b8089" rx="177.435" ry="45.603"/><path d="m319.564 350.62c-3.706 0-7.382.033-11.031.09 92.854 1.464 166.404 21.28 166.404 45.513 0 24.234-73.549 44.049-166.404 45.513 3.65.058 7.325.09 11.031.09 97.995 0 177.435-20.417 177.435-45.603s-79.441-45.603-177.435-45.603z" fill="#7b7179"/><path d="m.049 312.059 2.9 34.94 51.55 8.833 57.63-8.833 2.9-34.94c.67-7.99-5.64-14.84-13.66-14.84h-87.66c-8.02 0-14.33 6.85-13.66 14.84z" fill="#fff3de"/><path d="m101.369 297.219h-22.063c8.02 0 14.33 6.85 13.66 14.84l-2.9 34.94-.3 3.62 22.363-3.62 2.9-34.94c.67-7.99-5.64-14.84-13.66-14.84z" fill="#ffe5c2"/><path d="m2.949 346.999 7.132 85.942c1.493 17.994 16.533 31.838 34.589 31.838h25.735c18.057 0 33.099-13.845 34.592-31.84l7.132-85.94z" fill="#6c7fd8"/><path d="m90.066 346.999-7.132 85.94c-1.493 17.996-16.535 31.84-34.592 31.84h22.063c18.057 0 33.099-13.845 34.592-31.84l7.132-85.94z" fill="#5a74d1"/><path d="m296.059 318.419v58.82h-104.39v-54.14c0-15.25 14.27-26.47 29.09-22.89l11.96 2.89z" fill="#97da7b"/><path d="m296.059 318.419v58.82h-54.83c-8.35-6.33-13.74-16.36-13.74-27.64v-22.6c0-8.34 1.82-16.48 5.23-23.9z" fill="#80d261"/><path d="m247.959 327.002v22.594c0 19.154 15.53 34.684 34.684 34.684h151.673c19.154 0 34.684-15.53 34.684-34.684v-22.594c0-15.677-6.438-30.654-17.79-41.454l-33.394-31.748h-118.685l-33.382 31.748c-11.352 10.8-17.79 25.777-17.79 41.454z" fill="#fff3de"/><path d="m299.131 253.801 28.418 27.017c17.336 16.476 44.525 16.476 61.849 0l28.418-27.017-28.418-27.017c-17.324-16.463-44.513-16.463-61.849 0z" fill="#fed2a4"/><path d="m451.21 285.548-33.394-31.747h-22.063l33.394 31.747c11.352 10.8 17.79 25.776 17.79 41.454v22.594c0 19.154-15.53 34.684-34.684 34.684h22.063c19.154 0 34.684-15.53 34.684-34.684v-22.594c0-15.677-6.438-30.654-17.79-41.454z" fill="#ffe5c2"/><path d="m367.335 226.783 28.418 27.017 11.031 10.487 11.031-10.487-28.418-27.017c-11.548-10.974-27.477-14.623-41.952-10.966 7.24 1.829 14.114 5.477 19.89 10.966z" fill="#ffbd86"/><path d="m285.739 363.819v29.36h-80.57l-20.37 3.39c-4.76.79-8.77-3.58-7.57-8.25l2.1-8.16c.28-1.09.28-2.23 0-3.32l-2.1-8.16c-1.2-4.67 2.81-9.04 7.57-8.25l20.37 3.39z" fill="#fed2a4"/><path d="m285.739 363.819v29.36h-46.95c-.99-2.74-1.52-5.69-1.52-8.76v-13.08c0-2.62.39-5.15 1.11-7.52z" fill="#ffbd86"/><path d="m259.331 384.42c0 13.672 10.612 24.997 24.255 25.884l31.561 2.054 52.917 3.444c14.957.973 27.624-10.896 27.624-25.884v-25.354c0-16.368-14.974-28.644-31.024-25.436l-42.322 8.46c-4.854.97-9.835 1.139-14.744.5l-18.977-2.472c-15.525-2.022-29.29 10.066-29.29 25.722z" fill="#c38f86"/><g><path d="m364.664 339.128-7.153 1.43c9.328 3.836 16.114 12.99 16.114 24.006v25.354c0 12.003-8.126 21.998-19.044 25.007l13.482.878c14.957.973 27.624-10.896 27.624-25.884v-25.354c0-16.369-14.973-28.646-31.023-25.437z" fill="#b87d72"/></g><path d="m186.729 149.648c-32.887-1.107-59.676-27.896-60.782-60.783-.852-25.331 13.26-47.445 34.174-58.204 3.42-1.759 2.133-6.972-1.713-6.961-.276.001-.552.003-.829.006-50.192.579-91.302 41.486-92.111 91.675-.849 52.702 42.045 95.596 94.747 94.746 50.188-.81 91.095-41.919 91.674-92.111.003-.277.005-.553.006-.829.011-3.846-5.202-5.133-6.961-1.713-10.759 20.914-32.874 35.027-58.205 34.174z" fill="#ffe177"/><g fill="#ffd15b"><path d="m244.934 115.474c-4.164 8.094-10.034 15.162-17.128 20.745-8.21 38.544-40.48 68.54-80.178 73.268 4.12.487 8.321.709 12.587.64 50.188-.81 91.095-41.919 91.674-92.111.003-.277.005-.553.006-.829.011-3.846-5.201-5.133-6.961-1.713z"/><path d="m138.059 30.661c-20.914 10.759-35.027 32.874-34.174 58.204 1.107 32.887 27.896 59.676 60.782 60.783 4.524.152 8.943-.181 13.216-.937-28.72-5.122-50.93-29.965-51.936-59.846-.852-25.331 13.26-47.445 34.174-58.204 3.42-1.759 2.133-6.972-1.713-6.961-.276.001-.552.003-.829.006-6.148.071-12.158.75-17.976 1.974.85 1.665.493 3.933-1.544 4.981z"/></g><path d="m226.437 58.203h-8.188v-8.188c0-4.142-3.357-7.5-7.5-7.5s-7.5 3.358-7.5 7.5v8.188h-8.188c-4.143 0-7.5 3.358-7.5 7.5s3.357 7.5 7.5 7.5h8.188v8.188c0 4.142 3.357 7.5 7.5 7.5s7.5-3.358 7.5-7.5v-8.188h8.188c4.143 0 7.5-3.358 7.5-7.5s-3.357-7.5-7.5-7.5z" fill="#ffe177"/><circle cx="255.678" cy="30.51" fill="#ffd15b" r="7.623"/></g></svg>