<svg id="outline_copy_3" height="512" viewBox="0 0 64 64" width="512" xmlns="http://www.w3.org/2000/svg" data-name="outline copy 3"><path d="m7 38h50a0 0 0 0 1 0 0v19a1 1 0 0 1 -1 1h-48a1 1 0 0 1 -1-1v-19a0 0 0 0 1 0 0z" fill="#fbb03b"/><path d="m15 54a1 1 0 0 1 -1-1v-15h-7v19a1 1 0 0 0 1 1h48a1 1 0 0 0 1-1v-3z" fill="#f7931e"/><g fill="#b1e5f2"><path d="m23 49h16a2 2 0 0 1 2 2 2 2 0 0 1 -2 2h-14a2 2 0 0 1 -2-2v-2a0 0 0 0 1 0 0z"/><path d="m35 49h-4l-3-6h3z"/><path d="m26 49h-3v-2h2z"/></g><path d="m41 51a2 2 0 0 1 -2 2h-14a2 2 0 0 1 -2-2v-2h2a2 2 0 0 0 2 2z" fill="#96d2e0"/><path d="m23 47h2v2h-2z" fill="#96d2e0"/><path d="m14 38a1 1 0 0 1 -1-1v-6a1 1 0 0 1 2 0v6a1 1 0 0 1 -1 1z" fill="#4d4d4d"/><path d="m19 37h-10a1 1 0 0 1 0-2h10a1 1 0 0 1 0 2z" fill="#4d4d4d"/><path d="m61 39h-58a1 1 0 0 1 0-2h58a1 1 0 0 1 0 2z" fill="#4d4d4d"/><path d="m8 14h12a0 0 0 0 1 0 0v16a1 1 0 0 1 -1 1h-10a1 1 0 0 1 -1-1v-16a0 0 0 0 1 0 0z" fill="#b1e5f2"/><path d="m13 27a1 1 0 0 1 -1-1v-12h-4v16a1 1 0 0 0 1 1h10a1 1 0 0 0 1-1v-3z" fill="#96d2e0"/><path d="m14 6a6 6 0 0 1 6 6v2a0 0 0 0 1 0 0h-12a0 0 0 0 1 0 0v-2a6 6 0 0 1 6-6z" fill="#4d4d4d"/><path d="m14 27a1 1 0 0 1 -1-1v-2a1 1 0 0 1 2 0v2a1 1 0 0 1 -1 1z" fill="#fff"/><path d="m44 37h-20a1 1 0 0 1 0-2h20a1 1 0 0 1 0 2z" fill="#4d4d4d"/><path d="m34 27a7 7 0 0 1 7 7v1a0 0 0 0 1 0 0h-14a0 0 0 0 1 0 0v-1a7 7 0 0 1 7-7z" fill="#f2e6c7"/><path d="m31 33a1 1 0 0 1 -1-1 7 7 0 0 1 1.76-4.63 7 7 0 0 0 -4.76 6.63v1h14v-1a6.63 6.63 0 0 0 -.08-1z" fill="#e5d5b1"/><path d="m51 19.59v-4.59a1 1 0 0 1 1-1 1 1 0 0 1 1 1v4.59a1 1 0 0 0 .29.7l1.42 1.42a1 1 0 0 1 .29.7v13.59a1 1 0 0 1 -1 1h-4a1 1 0 0 1 -1-1v-13.59a1 1 0 0 1 .29-.7l1.42-1.42a1 1 0 0 0 .29-.7z" fill="#ea4450"/><path d="m52 35a1 1 0 0 1 -1-1v-13.59a1 1 0 0 1 .29-.7l1.42-1.42a1 1 0 0 0 .29-.7v-2.59a1 1 0 0 0 -2 0v4.59a1 1 0 0 1 -.29.7l-1.42 1.42a1 1 0 0 0 -.29.7v13.59a1 1 0 0 0 1 1h4a1 1 0 0 0 1-1v-1z" fill="#ce293d"/><path d="m35 27h-2a1 1 0 0 1 0-2h2a1 1 0 0 1 0 2z" fill="#e5d5b1"/></svg>