<svg id="OBJECT" height="512" viewBox="0 0 32 32" width="512" xmlns="http://www.w3.org/2000/svg"><g fill="#6b7eb5"><path d="m26 8h2v16h-2z"/><path d="m8 26h16v2h-16z"/><path d="m4 8h2v16h-2z"/><path d="m8 4h16v2h-16z"/></g><rect fill="#80b6ff" height="8" rx="3" width="8" x="1" y="1"/><rect fill="#80b6ff" height="8" rx="3" width="8" x="23" y="1"/><rect fill="#80b6ff" height="8" rx="3" width="8" x="1" y="23"/><rect fill="#80b6ff" height="8" rx="3" width="8" x="23" y="23"/><path d="m3 6a3 3 0 0 1 3-3h2a3 3 0 0 1 .86.14 3 3 0 0 0 -2.86-2.14h-2a3 3 0 0 0 -3 3v2a3 3 0 0 0 2.14 2.86 3 3 0 0 1 -.14-.86z" fill="#60a4ff"/><path d="m25 6a3 3 0 0 1 3-3h2a3 3 0 0 1 .86.14 3 3 0 0 0 -2.86-2.14h-2a3 3 0 0 0 -3 3v2a3 3 0 0 0 2.14 2.86 3 3 0 0 1 -.14-.86z" fill="#60a4ff"/><path d="m3 28a3 3 0 0 1 3-3h2a3 3 0 0 1 .86.14 3 3 0 0 0 -2.86-2.14h-2a3 3 0 0 0 -3 3v2a3 3 0 0 0 2.14 2.86 3 3 0 0 1 -.14-.86z" fill="#60a4ff"/><path d="m25 28a3 3 0 0 1 3-3h2a3 3 0 0 1 .86.14 3 3 0 0 0 -2.86-2.14h-2a3 3 0 0 0 -3 3v2a3 3 0 0 0 2.14 2.86 3 3 0 0 1 -.14-.86z" fill="#60a4ff"/><rect fill="#a0e5a5" height="15" rx="1" width="15" x="8.5" y="8.5"/><path d="m10.5 11.5a1 1 0 0 1 1-1h12v-1a1 1 0 0 0 -1-1h-13a1 1 0 0 0 -1 1v13a1 1 0 0 0 1 1h1z" fill="#89df8f"/><path d="m20 16a1 1 0 0 1 -1-1v-2h-2a1 1 0 0 1 0-2h3a1 1 0 0 1 1 1v3a1 1 0 0 1 -1 1z" fill="#f0e6e2"/></svg>