<svg id="Capa_1" enable-background="new 0 0 512 512" height="512" viewBox="0 0 512 512" width="512" xmlns="http://www.w3.org/2000/svg"><g><path d="m.427 270.912c-.351-6.113-.488-12.283-.403-18.504 1.93-140.7 115.95-252.777 256.663-252.407 141.069.371 255.313 114.843 255.313 255.999 0 5.161-.153 10.286-.454 15.371-.354 5.969-5.303 10.629-11.283 10.629h-488.056c-6.24 0-11.422-4.858-11.78-11.088z" fill="#40c1fa"/><path d="m359.111 88.725c-.38 8.068-7.33 14.275-15.407 14.275h-139.153c-8.077 0-15.027-6.207-15.407-14.275-.405-8.614 6.459-15.725 14.984-15.725h20c8.284 0 15-6.716 15-15 0-8.284 6.716-15 15-15h40c8.284 0 15 6.716 15 15 0 8.284 6.716 15 15 15h20c8.524 0 15.388 7.111 14.983 15.725zm-238.983 74.275h-50c-8.284 0-15 6.716-15 15s6.716 15 15 15h50c8.284 0 15-6.716 15-15s-6.716-15-15-15zm313-38h-50c-8.284 0-15 6.716-15 15s6.716 15 15 15h50c8.284 0 15-6.716 15-15s-6.716-15-15-15zm-9 98h-50c-8.284 0-15 6.716-15 15s6.716 15 15 15h50c8.284 0 15-6.716 15-15s-6.716-15-15-15zm-262-120h-70c-8.284 0-15 6.716-15 15s6.716 15 15 15h70c8.284 0 15-6.716 15-15s-6.716-15-15-15z" fill="#93dcfc"/><path d="m511.624 270c-4.794 88.953-54.999 165.837-127.843 207.878-8.791 5.074-19.78-1.206-19.78-11.356-.001-38.396-31.127-69.522-69.524-69.522h-239.687c-8.024 0-15.412-4.281-19.486-11.194-20.21-34.286-32.658-73.693-34.928-115.806z" fill="#1ab975"/><path d="m163 213h-20v-203h20zm114-203h-20v203h20z" fill="#19305c"/><path d="m159 46h-12c-11.046 0-20-8.954-20-20 0-11.046 8.954-20 20-20h12c11.046 0 20 8.954 20 20 0 11.046-8.954 20-20 20zm20 130c0-11.046-8.954-20-20-20h-12c-11.046 0-20 8.954-20 20 0 11.046 8.954 20 20 20h12c11.046 0 20-8.954 20-20zm114-150c0-11.046-8.954-20-20-20h-12c-11.046 0-20 8.954-20 20 0 11.046 8.954 20 20 20h12c11.046 0 20-8.954 20-20zm0 150c0-11.046-8.954-20-20-20h-12c-11.046 0-20 8.954-20 20 0 11.046 8.954 20 20 20h12c11.046 0 20-8.954 20-20z" fill="#51489a"/><path d="m300 213h-180c-11.046 0-20-8.954-20-20 0-11.046 8.954-20 20-20h180c11.046 0 20 8.954 20 20 0 11.046-8.954 20-20 20zm-115-198c0-8.284-6.716-15-15-15h-38.25c-8.284 0-15 6.716-15 15 0 8.284 6.716 15 15 15h38.25c8.284 0 15-6.716 15-15z" fill="#ffa90b"/><path d="m288.25 30h-125c-8.284 0-15-6.716-15-15 0-8.284 6.716-15 15-15h125c8.284 0 15 6.716 15 15 0 8.284-6.716 15-15 15z" fill="#ffc14f"/><path d="m195 203.521v275.348c0 13.345-13.255 22.562-25.809 18.037-56.706-20.437-104.121-60.326-134.191-111.615v-153.291c0-22.091 17.909-40 40-40h108.479c6.363 0 11.521 5.158 11.521 11.521z" fill="#ffc14f"/><path d="m385 232v245.17c-37.879 22.141-81.958 34.83-129 34.83-31.037 0-60.784-5.524-88.312-15.641-13.944-41.708-21.688-87.839-21.688-136.359 0-61.152 12.3-118.511 33.812-168h165.188c22.091 0 40 17.909 40 40z" fill="#fff36c"/><path d="m328.085 400h-99.085c-4.971 0-9-4.029-9-9v-142c0-4.971 4.029-9 9-9h99.085c13.208 0 23.915 10.707 23.915 23.915v112.17c0 13.208-10.707 23.915-23.915 23.915z" fill="#c83c50"/><path d="m482 420h-53c-4.971 0-9-4.029-9-9v-142c0-4.971 4.029-9 9-9h53c4.971 0 9 4.029 9 9v142c0 4.971-4.029 9-9 9z" fill="#b03244"/><path d="m460 400h-130c-44.183 0-80-35.817-80-80 0-44.183 35.817-80 80-80h130c5.523 0 10 4.477 10 10v140c0 5.523-4.477 10-10 10z" fill="#f44545"/><path d="m230 240v270.696c-6.747-.681-13.418-1.623-20-2.818v-267.878c0-5.523 4.477-10 10-10s10 4.477 10 10z" fill="#51489a"/><path d="m440.5 293h-65c-4.142 0-7.5-3.358-7.5-7.5 0-4.142 3.358-7.5 7.5-7.5h65c4.142 0 7.5 3.358 7.5 7.5 0 4.142-3.358 7.5-7.5 7.5zm7.5 22.5c0-4.142-3.358-7.5-7.5-7.5h-65c-4.142 0-7.5 3.358-7.5 7.5 0 4.142 3.358 7.5 7.5 7.5h65c4.142 0 7.5-3.358 7.5-7.5z" fill="#ff956a"/><path d="m430.745 356.5c0 4.142-3.358 7.5-7.5 7.5h-30.49c-4.142 0-7.5-3.358-7.5-7.5s3.358-7.5 7.5-7.5h30.49c4.142 0 7.5 3.358 7.5 7.5z" fill="#fff36c"/><path d="m331.405 284.002-34.715 82.719c-.803 1.914-2.659 3.066-4.612 3.066-.645 0-1.301-.126-1.933-.391-2.546-1.068-3.744-3.999-2.675-6.545l34.715-82.719c1.069-2.546 3.999-3.743 6.545-2.675 2.545 1.068 3.744 3.999 2.675 6.545zm-45.972 34.859c-11.215 0-20.339-10.239-20.339-22.825s9.124-22.825 20.339-22.825 20.339 10.239 20.339 22.825-9.124 22.825-20.339 22.825zm10.339-22.824c0-7.072-4.638-12.825-10.339-12.825s-10.339 5.753-10.339 12.825 4.638 12.825 10.339 12.825c5.701-.001 10.339-5.754 10.339-12.825zm56.885 56.556c0 12.585-9.124 22.825-20.339 22.825s-20.339-10.239-20.339-22.825 9.124-22.825 20.339-22.825 20.339 10.24 20.339 22.825zm-10 0c0-7.072-4.638-12.825-10.339-12.825s-10.339 5.753-10.339 12.825 4.638 12.825 10.339 12.825 10.339-5.753 10.339-12.825z" fill="#fff"/></g></svg>