<svg id="Layer_1" enable-background="new 0 0 474.989 474.989" height="512" viewBox="0 0 474.989 474.989" width="512" xmlns="http://www.w3.org/2000/svg"><path d="m406.34 236.53v51.66c0 16.02-12.98 29-29 29h-6.87c-.01 22.03-.15 25.95-.8 31.12-6.87 63.23-59.01 112.64-123.11 115.55-74.9 3.39-135.92-56.44-135.92-129.77 0-6.03-.01-11.65-.01-16.9h-6.98c-16.02 0-29-12.99-29-29v-51.66c0-62.2 34.25-116.41 84.91-144.79-6.067-49.284 32.327-91.74 80.93-91.74 48.641 0 87.003 42.485 80.94 91.74 50.67 28.39 84.91 82.59 84.91 144.79z" fill="#fe4f60"/><path d="m313.14 87.4c-.184 46.306-19.237 92.279-55.97 122.4-7.24-5.31-12.8-10.28-16.52-13.8 29.99-28.243 48.55-69.69 48.55-118.04 8.044 2.459 16.121 5.626 23.94 9.44z" fill="#e84857"/><path d="m289.2 77.96c.07 9.02-.54 20.33-2.93 33.01-83.92-4.94-156.35 53.23-172.34 132.61-2.1 2.7-3.35 6.1-3.35 9.79v63.82h-6.93c-16.02 0-29-12.99-29-29v-51.66c0-66.25 38.26-121.49 91.78-148.38-2.32 1.15-4.62 2.33-6.87 3.59-5.937-48.195 30.9-91.74 81.79-91.74 20.32.216 26.503 28.09 6.48 36.826-17.058 7.442-12.661 32.755 5.887 34.28 11.738.964 23.615 3.211 35.483 6.854z" fill="#ff6d7a"/><path d="m369.672 348.309c-6.869 63.235-59.014 112.64-123.112 115.551-74.903 3.389-135.92-56.436-135.92-129.77-.031-46.691-.046-69.164-.053-80.811-.006-8.994 7.395-16.243 16.385-16.001 41.005 1.105 82.131-11.578 113.678-41.278 30.82 29.224 70.266 45.836 112.274 42.203 9.387-.812 17.486 6.503 17.49 15.924.039 80.857.296 85.925-.742 94.182z" fill="#ffebd2"/><path d="m200.309 436.345c-7.614 10.584-21.735 12.634-31.943 5.795-34.888-23.378-57.727-63.187-57.727-108.049-.03-46.69-.05-69.16-.05-80.81-.01-8.99 7.39-16.24 16.38-16 13.725.362 23.63 11.328 23.64 23.935.009 11.72.02 26.401.03 44.875 0 40.692 18.146 75.508 45.659 98.842 9.3 7.887 11.133 21.513 4.011 31.412z" fill="#fff3e4"/><path d="m196.18 456.24h-.01c-33.382 19.078-73.562 1.077-83.37-33.74-23.527 3.764-44.15-14.362-44.15-37.5 0-21.484 17.903-39.136 40.22-37.93h.02c1.983-18.044 17.23-32.07 35.78-32.07 13.95 0 26.06 7.94 32.03 19.54 2.948 5.722 4.225 12.449 3.96 16.95 51.384 12.479 59.517 79.617 15.52 104.75z" fill="#caf1fc"/><path d="m179.747 364.344c-29.112 2.214-55.058 16.978-65.013 42.827-4.523 11.745-18.588 16.473-29.073 9.511-10.189-6.767-17.011-18.35-17.011-31.682 0-21.727 18.235-39.205 40.24-37.93 1.983-18.044 17.23-32.07 35.78-32.07 22.005 0 37.02 19.328 35.99 36.49 7.708 1.867 6.347 12.302-.913 12.854z" fill="#e3f7fc"/><path d="m374.65 370c0 11.62-5.25 22.26-13.83 29.32 4.97 7.39 7.83 16.16 7.83 25.86 12.39 1.49 22 12.03 22 24.82 0 24.09-30.8 34.12-45.09 14.88-32.444 18.703-72.758-7.544-68.64-44.85 0-.02 0-.03.01-.05 1.21-13.86 10.13-28.21 24.47-35.78-10.04-24.89 8.3-52.2 35.25-52.2 20.98 0 38 17.007 38 38z" fill="#caf1fc"/><path d="m180.66 351.49c-8.359-1.981-16.771-1.989-24.66-.31-3.98.83-7.96-1.38-9.27-5.23-1.56-4.54 1.22-9.43 5.92-10.42 7.768-1.635 15.947-2.043 24.05-.99 2.948 5.722 4.225 12.449 3.96 16.95z" fill="#caf1fc"/><path d="m344.568 354.892c-11.66 9.247-18.143 23.856-16.552 40.842 1.113 11.89-8.666 12.619-15.826 32.719-7.194 20.195-37.736 13.914-35.27-8.423 0-.02 0-.03.01-.05 1.21-13.86 10.13-28.21 24.47-35.78-10.04-24.89 8.3-52.2 35.25-52.2 12.697 0 17.29 15.46 7.918 22.892z" fill="#e3f7fc"/></svg>